<?xml version="1.0" standalone="no"?>
<!DOCTYPE svg PUBLIC "-//W3C//DTD SVG 20010904//EN"
 "http://www.w3.org/TR/2001/REC-SVG-20010904/DTD/svg10.dtd">
<svg version="1.0" xmlns="http://www.w3.org/2000/svg"
 width="298.000000pt" height="106.000000pt" viewBox="0 0 298.000000 106.000000"
 preserveAspectRatio="xMidYMid meet">
<metadata>
Created by potrace 1.15, written by Peter Selinger 2001-2017
</metadata>
<g transform="translate(0.000000,106.000000) scale(0.100000,-0.100000)"
fill="white" stroke="none">
<path d="M185 1035 c-22 -21 -25 -33 -25 -99 l0 -74 -80 -67 c-44 -37 -80 -70
-80 -75 0 -5 36 -42 80 -83 l80 -74 0 -257 0 -257 25 -24 24 -25 1350 0 c968
0 1357 3 1374 11 14 6 30 22 36 36 15 34 15 932 0 966 -6 14 -22 30 -36 36
-17 8 -406 11 -1374 11 l-1350 0 -24 -25z"/>
</g>
</svg>
