<?xml version="1.0" standalone="no"?>
<!DOCTYPE svg PUBLIC "-//W3C//DTD SVG 20010904//EN"
 "http://www.w3.org/TR/2001/REC-SVG-20010904/DTD/svg10.dtd">
<svg version="1.0" xmlns="http://www.w3.org/2000/svg"
 width="1254.000000pt" height="1463.000000pt" viewBox="0 0 1254.000000 1463.000000"
 preserveAspectRatio="xMidYMid meet">
<metadata>
Created by potrace 1.15, written by Peter Selinger 2001-2017
</metadata>
<g transform="translate(0.000000,1463.000000) scale(0.100000,-0.100000)"
fill="#05102c" stroke="none">
<path d="M120 14625 c0 -2 9 -28 20 -58 104 -279 356 -1160 495 -1729 467
-1925 681 -3740 637 -5396 -26 -964 -99 -1848 -238 -2880 -191 -1421 -520
-3087 -863 -4366 -28 -104 -51 -190 -51 -192 0 -2 2794 -4 6210 -4 l6210 0 0
7315 0 7315 -6210 0 c-3416 0 -6210 -2 -6210 -5z"/>
</g>
</svg>
