<?xml version="1.0" standalone="no"?>
<!DOCTYPE svg PUBLIC "-//W3C//DTD SVG 20010904//EN"
 "http://www.w3.org/TR/2001/REC-SVG-20010904/DTD/svg10.dtd">
<svg version="1.0" xmlns="http://www.w3.org/2000/svg"
 width="76.000000pt" height="55.000000pt" viewBox="0 0 76.000000 55.000000"
 preserveAspectRatio="xMidYMid meet">

<g transform="translate(0.000000,55.000000) scale(0.100000,-0.100000)"
fill="white" stroke="none">
<path d="M16 534 c-24 -23 -24 -495 0 -518 18 -19 55 -21 72 -4 17 17 17 509
0 526 -17 17 -54 15 -72 -4z"/>
<path d="M405 539 c-36 -10 -56 -35 -48 -57 11 -28 25 -32 98 -25 60 5 77 2
112 -16 23 -11 54 -37 70 -58 25 -32 28 -45 28 -108 0 -63 -3 -76 -29 -109
-78 -102 -239 -99 -312 6 -25 35 -29 50 -29 115 -1 54 -5 77 -15 83 -59 38
-97 -57 -66 -163 57 -198 297 -270 450 -136 70 62 91 108 91 204 0 96 -21 142
-91 204 -70 61 -174 86 -259 60z"/>
<path d="M463 342 c-26 -4 -53 -37 -53 -65 0 -26 45 -67 73 -67 28 0 67 38 67
66 0 44 -39 74 -87 66z"/>
</g>
</svg>
