<?xml version="1.0" standalone="no"?>
<!DOCTYPE svg PUBLIC "-//W3C//DTD SVG 20010904//EN"
 "http://www.w3.org/TR/2001/REC-SVG-20010904/DTD/svg10.dtd">
<svg version="1.0" xmlns="http://www.w3.org/2000/svg"
 width="150.000000pt" height="110.000000pt" viewBox="0 0 150.000000 110.000000"
 preserveAspectRatio="xMidYMid meet">
<metadata>
Created by potrace 1.15, written by Peter Selinger 2001-2017
</metadata>
<g transform="translate(0.000000,110.000000) scale(0.100000,-0.100000)"
fill="white" stroke="none">
<path d="M950 1075 c0 -20 -5 -25 -25 -25 -20 0 -25 -5 -25 -25 0 -20 5 -25
25 -25 20 0 25 -5 25 -25 0 -20 5 -25 25 -25 20 0 25 -5 25 -25 0 -20 5 -25
25 -25 20 0 25 -5 25 -25 0 -20 5 -25 25 -25 20 0 25 -5 25 -25 0 -20 5 -25
25 -25 20 0 25 -5 25 -25 0 -20 5 -25 25 -25 20 0 25 -5 25 -25 0 -20 5 -25
25 -25 23 0 25 -3 25 -50 l0 -50 -625 0 -625 0 0 -50 0 -50 625 0 625 0 0 -50
c0 -47 -2 -50 -25 -50 -20 0 -25 -5 -25 -25 0 -20 -5 -25 -25 -25 -20 0 -25
-5 -25 -25 0 -20 -5 -25 -25 -25 -20 0 -25 -5 -25 -25 0 -20 -5 -25 -25 -25
-20 0 -25 -5 -25 -25 0 -20 -5 -25 -25 -25 -20 0 -25 -5 -25 -25 0 -20 -5 -25
-25 -25 -20 0 -25 -5 -25 -25 0 -20 -5 -25 -25 -25 -20 0 -25 -5 -25 -25 0
-20 5 -25 25 -25 20 0 25 -5 25 -25 0 -20 5 -25 25 -25 20 0 25 5 25 25 0 20
5 25 25 25 20 0 25 5 25 25 0 20 5 25 25 25 20 0 25 5 25 25 0 20 5 25 25 25
20 0 25 5 25 25 0 20 5 25 25 25 20 0 25 5 25 25 0 20 5 25 25 25 20 0 25 5
25 25 0 20 5 25 25 25 20 0 25 5 25 25 0 20 5 25 25 25 20 0 25 5 25 25 0 20
5 25 25 25 20 0 25 5 25 25 0 20 5 25 25 25 20 0 25 5 25 25 0 20 5 25 25 25
23 0 25 3 25 50 0 47 -2 50 -25 50 -20 0 -25 5 -25 25 0 20 -5 25 -25 25 -20
0 -25 5 -25 25 0 20 -5 25 -25 25 -20 0 -25 5 -25 25 0 20 -5 25 -25 25 -20 0
-25 5 -25 25 0 20 -5 25 -25 25 -20 0 -25 5 -25 25 0 20 -5 25 -25 25 -20 0
-25 5 -25 25 0 20 -5 25 -25 25 -20 0 -25 5 -25 25 0 20 -5 25 -25 25 -20 0
-25 5 -25 25 0 20 -5 25 -25 25 -20 0 -25 5 -25 25 0 20 -5 25 -25 25 -20 0
-25 5 -25 25 0 20 -5 25 -25 25 -20 0 -25 -5 -25 -25z"/>
</g>
</svg>
